Coordinates
version=1
nRows=5
nColumns=107
inDegrees=yes

Units are S.I. units (second, meters, Newtons, ...)
If the header above contains a line with 'inDegrees', this indicates whether rotational values are in degrees (yes) or radians (no).

endheader
time	sternoclavicular_r2	sternoclavicular_r3	unrotscap_r3	unrotscap_r2	acromioclavicular_r2	acromioclavicular_r3	acromioclavicular_r1	unrothum_r1	unrothum_r3	unrothum_r2	elv_angle	shoulder_elv	shoulder1_r2	shoulder_rot	elbow_flexion	pro_sup	deviation	flexion	proximal_distal_r1	proximal_distal_r3	cmc_flexion	cmc_abduction	mp_flexion	ip_flexion	mcp2_flexion	mcp2_abduction	pm2_flexion	md2_flexion	mcp3_flexion	mcp3_abduction	pm3_flexion	md3_flexion	mcp4_flexion	mcp4_abduction	pm4_flexion	md4_flexion	mcp5_flexion	mcp5_abduction	pm5_flexion	md5_flexion	bicpt_tx	bicpt_ty	bicpt_tz	bicpt2_tx	bicpt2_ty	bicpt2_tz	ptpt_tx	ptpt_ty	ptpt_tz	FCUpt_tx	FCUpt_ty	FCUpt_tz	EDCpt_tx	EDCpt_ty	EDCpt_tz	APLpt_tx	APLpt_ty	APLpt_tz	FPLpt_tx	FPLpt_ty	FPLpt_tz	FPLpt2_tx	FPLpt2_ty	FPLpt2_tz	PEC1pt2_tx	PEC1pt2_ty	PEC1pt2_tz	PEC1pt3_tx	PEC1pt3_ty	PEC1pt3_tz	PEC2pt2_tx	PEC2pt2_ty	PEC2pt2_tz	PEC2pt3_tx	PEC2pt3_ty	PEC2pt3_tz	PEC3pt2_tx	PEC3pt2_ty	PEC3pt2_tz	PEC3pt3_tx	PEC3pt3_ty	PEC3pt3_tz	DELT2pt2a_tx	DELT2pt2a_ty	DELT2pt2a_tz	DELT2pt2_tx	DELT2pt2_ty	DELT2pt2_tz	LAT1pt2_tx	LAT1pt2_ty	LAT1pt2_tz	LAT1pt3_tx	LAT1pt3_ty	LAT1pt3_tz	LAT2pt2_tx	LAT2pt2_ty	LAT2pt2_tz	LAT2pt3_tx	LAT2pt3_ty	LAT2pt3_tz	LAT3pt2_tx	LAT3pt2_ty	LAT3pt2_tz	LAT3pt3_tx	LAT3pt3_ty	LAT3pt3_tz
      0.00000000	     -0.31976674	      0.13543810	     -0.13543810	      0.31976674	     -0.06474626	      0.52325649	      0.23520019	     -0.23520019	     -0.52325649	      0.06474626	     99.70707235	     75.70761702	     -1.74021670	    -23.67367370	     27.49116325	      9.10032225	     -0.09491621	     -0.96055223	     -0.13618865	     -0.48027612	    -11.59037556	     -5.53523086	    -32.79863991	    -12.15268302	      6.54690244	     13.69259345	      8.90648901	    -30.05980454	     59.01711889	      9.77731558	     87.41154073	     71.75431472	     38.75406553	     -3.10511708	     86.01957781	     44.31606215	    -15.97357911	    -11.63594104	    -14.41891936	      5.05220753	      0.00080932	     -0.03075091	     -0.00480753	      0.01542452	     -0.01766811	     -0.01009926	      0.00687759	     -0.06533479	     -0.00078308	      0.00481664	     -0.18400229	      0.00019245	     -0.00109204	      0.00027062	      0.00010951	      0.00021010	      0.00008404	      0.00042020	      0.00026893	      0.00080678	      0.00045381	     -0.00182128	      0.00036439	      0.00043727	      0.00248153	      0.00870638	      0.00605661	     -0.00811755	      0.01959988	     -0.01859044	      0.00248153	      0.00870638	      0.00605661	      0.00054678	      0.01816984	     -0.00954758	      0.00393051	      0.00484151	      0.01592488	      0.00000000	      0.00766465	      0.00000000	     -0.00710811	     -0.03284872	     -0.00631920	      0.01580590	     -0.00054736	     -0.00467706	     -0.00088326	      0.01480506	     -0.00605661	      0.00243947	      0.02136639	     -0.01766513	     -0.00593044	      0.01282825	     -0.00542572	     -0.01236559	      0.02708653	     -0.03032513	     -0.02321702	      0.01434240	     -0.00727635	     -0.01539390	      0.03129251	     -0.03789590
      0.03333333	     -0.31522352	      0.13351381	     -0.13351381	      0.31522352	     -0.06382635	      0.51582211	      0.23185849	     -0.23185849	     -0.51582211	      0.06382635	    100.84865239	     74.63197022	     -1.76014103	    -29.65830997	     27.80879987	     14.56473108	     -0.09326897	     -0.91464330	     -0.13369938	     -0.45732165	    -11.26926598	     -5.02295719	    -32.52352519	    -12.99131914	      6.91797499	     13.71265593	      8.15067365	    -27.49758664	     58.34541889	      9.61515283	     87.45497013	     70.84457836	     38.57899675	     -3.59423560	     88.19885306	     43.66171884	    -16.33261088	    -11.93237092	    -12.68488686	      5.01078048	      0.00081983	     -0.03078731	     -0.00481339	      0.01578686	     -0.01775440	     -0.00973174	      0.00647383	     -0.06559587	     -0.00122327	      0.00531928	     -0.18393233	      0.00003775	     -0.00174776	      0.00044540	      0.00015370	      0.00023522	      0.00009409	      0.00047044	      0.00030108	      0.00090324	      0.00050807	     -0.00171615	      0.00035229	      0.00042274	      0.00244627	      0.00858268	      0.00597056	     -0.00800221	      0.01932140	     -0.01832631	      0.00244627	      0.00858268	      0.00597056	      0.00053901	      0.01791169	     -0.00941193	      0.00388940	      0.00477272	      0.01582276	      0.00000000	      0.00744697	      0.00000000	     -0.00700712	     -0.03238201	     -0.00613843	      0.01872576	     -0.00074545	     -0.00733315	     -0.00087071	      0.01459471	     -0.00597056	      0.00240481	      0.02106282	     -0.01741414	     -0.00584618	      0.01264598	     -0.00534863	     -0.01218990	      0.02670168	     -0.02989428	     -0.02288716	      0.01413862	     -0.00717297	     -0.01517518	      0.03084791	     -0.03735748
      0.06666667	     -0.31579308	      0.13375505	     -0.13375505	      0.31579308	     -0.06394168	      0.51675413	      0.23227743	     -0.23227743	     -0.51675413	      0.06394168	    100.60854684	     74.76681954	     -1.75595040	    -28.58534788	     27.80172547	     12.86218329	     -0.08890284	     -0.91726466	     -0.12712195	     -0.45863233	    -11.12780511	     -4.54035439	    -32.56663707	    -13.39841311	      7.24091630	     13.70582873	      8.16059411	    -27.55167076	     57.77062745	      9.30939457	     87.45286407	     70.18697489	     38.06241635	     -4.23896226	     90.39592871	     43.41110144	    -16.82560362	    -12.16093269	    -12.12396060	      5.00844126	      0.00081959	     -0.03078650	     -0.00481326	      0.01568129	     -0.01775248	     -0.00985074	      0.00659963	     -0.06551453	     -0.00108612	      0.00516169	     -0.18395504	      0.00008354	     -0.00154346	      0.00038996	      0.00014167	      0.00023388	      0.00009355	      0.00046776	      0.00029937	      0.00089810	      0.00050518	     -0.00167107	      0.00034699	      0.00041639	      0.00245069	      0.00859819	      0.00598135	     -0.00801667	      0.01935632	     -0.01835942	      0.00245069	      0.00859819	      0.00598135	      0.00053998	      0.01794405	     -0.00942893	      0.00389458	      0.00478135	      0.01583572	      0.00000000	      0.00747408	      0.00000000	     -0.00701978	     -0.03244052	     -0.00616095	      0.01823756	     -0.00070910	     -0.00682229	     -0.00087228	      0.01462108	     -0.00598135	      0.00240916	      0.02110088	     -0.01744561	     -0.00585674	      0.01266883	     -0.00535829	     -0.01221192	      0.02674993	     -0.02994829	     -0.02292851	      0.01416417	     -0.00718593	     -0.01520260	      0.03090364	     -0.03742498
      0.10000000	     -0.31553407	      0.13364534	     -0.13364534	      0.31553407	     -0.06388923	      0.51633028	      0.23208691	     -0.23208691	     -0.51633028	      0.06388923	    100.62331632	     74.70549481	     -1.75620817	    -28.75143960	     27.79208936	     12.66366315	     -0.08841477	     -0.91695030	     -0.12638968	     -0.45847515	    -11.01812024	     -4.52681045	    -32.52030157	    -13.38873228	      7.22264026	     13.66947897	      8.15955987	    -27.55111711	     57.72795520	      9.30698290	     87.44331914	     70.18628936	     38.08210798	     -4.25617465	     90.42934474	     43.41934794	    -16.77696316	    -12.25744312	    -12.11017912	      5.01256111	      0.00081928	     -0.03078540	     -0.00481308	      0.01566855	     -0.01774986	     -0.00986435	      0.00661430	     -0.06550504	     -0.00107013	      0.00514337	     -0.18395763	      0.00008902	     -0.00151964	      0.00038355	      0.00014017	      0.00023404	      0.00009362	      0.00046808	      0.00029957	      0.00089872	      0.00050553	     -0.00163666	      0.00034290	      0.00041148	      0.00244868	      0.00859114	      0.00597644	     -0.00801010	      0.01934044	     -0.01834436	      0.00244868	      0.00859114	      0.00597644	      0.00053954	      0.01792933	     -0.00942120	      0.00389222	      0.00477742	      0.01582983	      0.00000000	      0.00746174	      0.00000000	     -0.00701402	     -0.03241391	     -0.00615071	      0.01831412	     -0.00071471	     -0.00690045	     -0.00087156	      0.01460909	     -0.00597644	      0.00240718	      0.02108357	     -0.01743130	     -0.00585194	      0.01265844	     -0.00535390	     -0.01220191	      0.02672799	     -0.02992373	     -0.02290970	      0.01415255	     -0.00718003	     -0.01519013	      0.03087830	     -0.03739428
      0.13333333	     -0.31497001	      0.13340643	     -0.13340643	      0.31497001	     -0.06377502	      0.51540728	      0.23167203	     -0.23167203	     -0.51540728	      0.06377502	    100.75085525	     74.57195000	     -1.75843415	    -29.39805584	     27.87707127	     13.07858696	     -0.07750229	     -0.89595326	     -0.11009753	     -0.44797663	    -10.82645394	     -4.00391852	    -32.29655329	    -13.91299166	      7.67248867	     13.71695298	      8.00090308	    -27.19976427	     57.17740971	      9.08635475	     87.43816177	     69.46095389	     37.94587852	     -4.92777163	     92.23006752	     42.85914376	    -16.61604274	    -12.45603134	    -11.75859695	      5.01896850	      0.00082209	     -0.03079514	     -0.00481465	      0.01569524	     -0.01777294	     -0.00983594	      0.00658364	     -0.06552486	     -0.00110355	      0.00518165	     -0.18395222	      0.00007754	     -0.00156943	      0.00039693	      0.00014333	      0.00024445	      0.00009778	      0.00048890	      0.00031289	      0.00093868	      0.00052801	     -0.00157762	      0.00033578	      0.00040294	      0.00244430	      0.00857578	      0.00596576	     -0.00799578	      0.01930587	     -0.01831157	      0.00244430	      0.00857578	      0.00596576	      0.00053858	      0.01789728	     -0.00940436	      0.00388709	      0.00476888	      0.01581698	      0.00000000	      0.00743491	      0.00000000	     -0.00700148	     -0.03235597	     -0.00612842	      0.01860937	     -0.00073659	     -0.00720736	     -0.00087001	      0.01458297	     -0.00596576	      0.00240288	      0.02104588	     -0.01740014	     -0.00584147	      0.01263581	     -0.00534433	     -0.01218010	      0.02668021	     -0.02987023	     -0.02286875	      0.01412725	     -0.00716720	     -0.01516298	      0.03082310	     -0.03732744
